<svg width="19" height="19" viewBox="0 0 19 19" fill="none" xmlns="http://www.w3.org/2000/svg">
<path d="M9.5 2.07812C13.6018 2.07812 16.9219 5.3976 16.9219 9.5C16.9219 13.6018 13.6024 16.9219 9.5 16.9219C5.39823 16.9219 2.07812 13.6024 2.07812 9.5C2.07812 5.39823 5.3976 2.07812 9.5 2.07812ZM9.5 0.296875C4.41724 0.296875 0.296875 4.41724 0.296875 9.5C0.296875 14.5828 4.41724 18.7031 9.5 18.7031C14.5828 18.7031 18.7031 14.5828 18.7031 9.5C18.7031 4.41724 14.5828 0.296875 9.5 0.296875ZM9.5 6.53125C7.8604 6.53125 6.53125 7.8604 6.53125 9.5C6.53125 11.1396 7.8604 12.4688 9.5 12.4688C11.1396 12.4688 12.4688 11.1396 12.4688 9.5C12.4688 7.8604 11.1396 6.53125 9.5 6.53125Z" fill="white"/>
</svg>
